<svg xmlns="http://www.w3.org/2000/svg" viewBox="0 0 512 512"><path d="M256 512C115.2 512 0 396.8 0 256S115.2 0 256 0s256 115.2 256 256-115.2 256-256 256z" fill="#e9495b"/><path d="M372.26 135.8l-12.132-10.02-9.168-6.476-5.116 17.652-96.28 50.436-81.18 8.572s-47.604 9.988-51.652 43.372c-5.624 46.4 29.664 42.868 29.664 42.868l2.044 13.112 96.772 216.332c4.016.208 8.064.292 12.124.316C397.524 511.236 512 396.352 512 256c0-17.1-1.732-33.812-4.968-50L372.26 135.8z" fill="#ab2d3d"/><path fill="#ec6646" d="M142.392 211.1l-6.532-2.448-11.016 6.936-10.612 22.448 2.04 22.036 8.16 14.288 9.388 7.752 10.204.816z"/><path fill="#dfdede" d="M171.368 297.212l21.22 58.36 11.428 27.752 8.976 9.796 11.02 2.856 8.572-5.304 2.856-11.836-7.348-19.996-23.668-59.996zm72.644-107.74l93.628-48.976 1.256 216.708-94.884-54.48z"/><path fill="#aeabaa" d="M244.012 189.472v113.252l-99.784-9.796-1.224-95.5zm95.496-61.22l-1.836 22.652v210.588l6.732 10.404h11.02l9.184-8.568-1.224-232.012-4.896-10.408-12.244-.612z"/><g fill="#474341"><path d="M318.112 345.272c-.54 0-1.088-.128-1.608-.4l-74.22-38.908-97.76-8.876a3.475 3.475 0 0 1-3.156-3.396l-1.428-84.164a3.475 3.475 0 0 1 3.416-3.532c2.004.088 3.496 1.496 3.532 3.412l1.372 81.048 93.872 8.524c.776-.176 1.564-.116 2.272.256l75.328 39.488a3.477 3.477 0 0 1 1.464 4.688 3.481 3.481 0 0 1-3.084 1.86m-156-145.332a3.469 3.469 0 0 1-.308-6.924l80.484-7.308 93.34-48.928a3.472 3.472 0 0 1 5.084 3.072v32.476a3.47 3.47 0 0 1-3.472 3.468 3.468 3.468 0 0 1-3.472-3.468v-26.74L244.4 192.432a3.458 3.458 0 0 1-2.512.28l-79.456 7.212a2.955 2.955 0 0 1-.32.016m175.12 133.8a3.468 3.468 0 0 1-3.472-3.468V209.368c0-1.92 1.552-3.468 3.472-3.468s3.472 1.552 3.472 3.468v120.9a3.469 3.469 0 0 1-3.472 3.472"/><path d="M350.936 376.764c-9 0-16.328-7.324-16.328-16.324a3.471 3.471 0 1 1 6.944 0c0 5.172 4.208 9.384 9.384 9.384s9.384-4.212 9.384-9.384V132.712c0-5.176-4.208-9.384-9.384-9.384s-9.384 4.212-9.384 9.384a3.468 3.468 0 0 1-3.472 3.468 3.468 3.468 0 0 1-3.472-3.468c0-9.004 7.328-16.324 16.328-16.324s16.328 7.324 16.328 16.324V360.44c0 9.004-7.328 16.324-16.328 16.324m-106.312-89.04a2.427 2.427 0 0 1-2.428-2.428v-17.048c0-1.34 1.084-2.428 2.428-2.428s2.428 1.088 2.428 2.428v17.048a2.424 2.424 0 0 1-2.428 2.428m0-24.572a2.427 2.427 0 0 1-2.428-2.428v-54.348c0-1.344 1.084-2.428 2.428-2.428s2.428 1.088 2.428 2.428v54.344a2.425 2.425 0 0 1-2.428 2.432m-104.276 23.204c-16.148 0-29.284-18.18-29.284-40.524s13.136-40.52 29.284-40.52a3.468 3.468 0 1 1 0 6.936c-12.32 0-22.34 15.064-22.34 33.584s10.02 33.584 22.34 33.584a3.468 3.468 0 0 1 3.472 3.468 3.469 3.469 0 0 1-3.472 3.472m80.92 113.076c-7.992 0-16.1-5.888-19.74-15.132l-20.944-53.236a3.47 3.47 0 0 1 1.956-4.5c1.784-.688 3.804.168 4.504 1.96l20.944 53.232c3.076 7.796 10.604 12.468 16.484 10.136 5.868-2.308 8.232-10.852 5.168-18.652l-27.892-69.444c-.72-1.78.148-3.8 1.928-4.516a3.465 3.465 0 0 1 4.508 1.928l27.9 69.468c4.536 11.52.46 23.924-9.068 27.676a15.682 15.682 0 0 1-5.748 1.08"/><path d="M211.56 322.264c11.464-.016 20.532-9.26 20.08-20.772-.172-4.452-7.116-4.476-6.94 0 .304 7.744-5.332 13.816-13.14 13.832-4.468.008-4.472 6.948 0 6.94m-22.468-100.656a2.431 2.431 0 0 1-.164-4.856l29.064-2.028c1.336-.148 2.496.912 2.592 2.252a2.433 2.433 0 0 1-2.256 2.592l-29.06 2.032c-.06.004-.116.008-.176.008m-23.988 1.676a2.431 2.431 0 0 1-2.42-2.26 2.44 2.44 0 0 1 2.256-2.596l17.388-1.212c1.312-.108 2.496.912 2.592 2.252a2.433 2.433 0 0 1-2.256 2.592l-17.38 1.216c-.064.004-.124.008-.18.008m52.652 23.712h-.032l-19.376-.276a2.431 2.431 0 0 1 .032-4.86h.032l19.376.276a2.43 2.43 0 0 1-.032 4.86m-27.82-.396h-.032l-24.42-.348a2.43 2.43 0 0 1-2.396-2.464c.02-1.34.984-2.352 2.464-2.396l24.42.348a2.43 2.43 0 0 1 2.396 2.464 2.436 2.436 0 0 1-2.432 2.396m29.048 29.296c-.068 0-.132-.004-.2-.008l-29.852-2.428a2.432 2.432 0 0 1-2.224-2.62c.104-1.336 1.3-2.316 2.616-2.224l29.852 2.424a2.43 2.43 0 0 1 2.224 2.62 2.43 2.43 0 0 1-2.416 2.236m-39.508-3.212c-.068 0-.132-.004-.2-.008l-15.18-1.236a2.43 2.43 0 0 1-2.224-2.62c.104-1.34 1.288-2.316 2.616-2.224l15.18 1.232a2.43 2.43 0 0 1 2.224 2.62 2.426 2.426 0 0 1-2.416 2.236"/></g><path d="M365.832 199.732c7.776 0 14.08 21.896 14.08 48.908s-6.304 48.908-14.08 48.908" fill="#ec6646"/><path d="M365.832 299.98c-1.344 0-2.428-1.088-2.428-2.428s1.084-2.428 2.428-2.428c4.748 0 11.652-18.108 11.652-46.48s-6.9-46.48-11.652-46.48c-1.344 0-2.428-1.088-2.428-2.428s1.084-2.428 2.428-2.428c10.836 0 16.508 25.828 16.508 51.34s-5.668 51.332-16.508 51.332m-31.628-114.184v4.08c0 3.152 4.896 3.156 4.896 0v-4.08c0-3.148-4.896-3.152-4.896 0m-156.78 123.408a9670.6 9670.6 0 0 1-3.904-11.488c-1.008-2.968-5.74-1.692-4.724 1.304 1.304 3.828 2.604 7.656 3.908 11.488 1.008 2.968 5.74 1.692 4.72-1.304" fill="#474341"/></svg>