<svg xmlns="http://www.w3.org/2000/svg" width="512" height="512" viewBox="0 0 612 612"><path d="M180.052 126.499c-29.028-12.168-55.903-28.365-80.015-47.948C41.022 132.476 3.029 209.187 0 294.995h142.069c1.479-59.922 14.952-116.835 37.983-168.496zm268.002 190.506H316.949v143.313c32.935.714 64.573 6.507 94.376 16.544 22.235-48.948 35.239-102.964 36.729-159.857zm-305.985 0H0c3.08 87.359 42.46 165.171 103.3 219.229a325.128 325.128 0 0 1 77.669-48.642c-23.591-52.222-37.411-109.849-38.9-170.587zM263.973 1.352C208.998 8.93 158.725 31.154 117.11 63.956c21.939 17.37 46.234 31.761 72.406 42.644 19.655-38.727 44.746-74.202 74.457-105.248zm147.036 133.042c-29.69 10.087-61.228 16.034-94.06 17.115v143.486h131.094c-1.499-57.179-14.605-111.46-37.034-160.601zM316.949 3.616v125.892c29.375-1.03 57.627-6.231 84.288-15.054-21.745-41.563-50.324-78.996-84.288-110.838zm152.972 291.379H612c-3.029-85.829-40.992-162.58-100.006-216.504-24.255 19.716-51.273 36.024-80.494 48.233 23.285 51.558 36.932 108.389 38.421 168.271zm24.907-231.039C452.612 30.706 401.533 8.277 345.64 1.015c30.455 31.119 56.168 66.807 76.262 105.861 26.386-10.904 50.834-25.428 72.926-42.92zM210.13 114.27c26.855 8.935 55.322 14.198 84.921 15.248V1.494A419.54 419.54 0 0 0 210.13 114.27zm106.819 368.191v125.913c34.138-31.985 62.85-69.652 84.636-111.46a295.338 295.338 0 0 0-84.636-14.453zM345.6 610.985c56.188-7.272 107.503-29.926 149.841-63.481-22.174-17.635-46.704-32.271-73.171-43.124-20.145 39.34-46.011 75.293-76.67 106.605zm86.267-126.565c29.312 12.188 56.383 28.66 80.708 48.569 58.688-53.894 96.405-130.44 99.415-215.984H469.932c-1.49 59.545-14.994 116.091-38.065 167.415zm-230.652-5.09c29.538-10.761 61.044-17.135 93.835-18.665v-143.66H163.947c1.499 57.821 14.687 112.674 37.268 162.325zm93.836 131.176V482.818c-29.323 1.479-57.505 7.119-84.034 16.523a419.455 419.455 0 0 0 84.034 111.165zm-174.483-59.902c40.92 31.343 89.878 52.659 143.333 60.044-29.15-30.476-53.863-65.246-73.344-103.137a302.404 302.404 0 0 0-69.989 43.093zm43.389-255.609h131.094V151.529c-32.995-1.102-64.695-7.068-94.519-17.278-22.143 49.253-35.096 103.545-36.575 160.744z" fill="#eec856"/></svg>