<svg xmlns="http://www.w3.org/2000/svg" viewBox="0 0 512.002 512.002"><circle cx="256.001" cy="256" r="256" fill="#ffc61b"/><path d="M512.001 256c0-10.54-.652-20.928-1.889-31.135L396.609 111.363l-29.158 45.57-15.098-15.098-48.345 14.21 39.034 39.034-10.669 16.675v81.736L181.935 143.051l-36.612 1.588-1.193-.091-10.245.588-17.284 1.612-3.868.798-4.846 4.794 183.006 183.118-171.979 23.226 37.952 37.952-8.278 8.097L255.854 512l.148.002C397.385 512 512.001 397.384 512.001 256z" fill="#eaa22f"/><path d="M359.952 405.552a7.76 7.76 0 0 1-6.946-4.289l-25.986-51.972a7.758 7.758 0 1 1 13.879-6.939l25.986 51.972a7.76 7.76 0 0 1-6.933 11.228zm-207.903 0a7.76 7.76 0 0 1-6.933-11.23l25.986-51.972a7.76 7.76 0 0 1 10.409-3.47 7.76 7.76 0 0 1 3.47 10.409l-25.986 51.972a7.758 7.758 0 0 1-6.946 4.291z" fill="#272525"/><path fill="#808183" d="M353.779 325.032h-71.864l67.039-180.484h24.116z"/><path fill="#a6a8aa" d="M144.63 246.984h40.786l-38.047-102.436h-13.688z"/><path d="M377.753 111.18l-19.104 19.104a13.207 13.207 0 0 1-9.338 3.868h-35.004c-7.294 0-13.207 5.913-13.207 13.207v.426c0 7.294 5.913 13.207 13.207 13.207h59.152a13.21 13.21 0 0 0 11.814-7.301l13.634-27.267c4.391-8.782-1.995-19.115-11.814-19.115a13.223 13.223 0 0 0-9.34 3.871z" fill="#444"/><path d="M182.433 218.376l173.659 14.26c35.007 2.875 61.955 32.127 61.955 67.251 0 35.126-26.948 64.378-61.955 67.251l-173.659 14.26c-47.649 3.913-88.479-33.702-88.479-81.511s40.83-85.425 88.479-81.511z" fill="#808183"/><path d="M356.093 232.636l-96.068-7.889v150.281l96.068-7.889c35.007-2.875 61.955-32.125 61.955-67.251 0-35.127-26.948-64.378-61.955-67.252z" fill="#59595b"/><circle cx="170.892" cy="299.891" r="51.976" fill="#d0d1d3"/><path d="M359.945 304.202h-26.431l-21.885-21.883a5.17 5.17 0 0 0-7.313 0 5.17 5.17 0 0 0 0 7.313l14.572 14.57h-10.916a7.759 7.759 0 0 0 0 15.516h51.972a7.759 7.759 0 0 0 .001-15.516z" fill="#272525"/><path d="M168.94 156.044h-51.97c-7.177 0-12.993-5.816-12.993-12.993 0-7.177 5.816-12.993 12.993-12.993h51.972c7.177 0 12.993 5.816 12.993 12.993-.002 7.177-5.818 12.993-12.995 12.993z" fill="#444"/></svg>