<svg xmlns="http://www.w3.org/2000/svg" viewBox="0 0 496.2 496.2"><path d="M0 248.1C0 111.1 111.1 0 248.1 0s248.1 111.1 248.1 248.1-111.1 248.1-248.1 248.1S0 385.1 0 248.1z" fill="#65a844"/><path d="M386.9 366.4c0 25-19.5 45.2-43.6 45.2H152.9c-24.1 0-43.6-20.2-43.6-45.2V129.8c0-25 19.5-45.2 43.6-45.2h190.4c24.1 0 43.6 20.2 43.6 45.2v236.6z" fill="#a2d4de"/><g fill="#9bccd3"><path d="M337.8 405.4H158.4c-23.3 0-42.3-19.7-42.3-43.8v-227c0-24.2 19-43.8 42.3-43.8h179.5c23.3 0 42.3 19.7 42.3 43.8v227c-.1 24.2-19 43.8-42.4 43.8zM158.4 93.3c-22 0-39.8 18.5-39.8 41.3v227c0 22.8 17.9 41.3 39.8 41.3h179.5c22 0 39.8-18.5 39.8-41.3v-227c0-22.8-17.9-41.3-39.8-41.3H158.4z"/><path d="M331.7 394.8H164.5c-21.8 0-39.5-18.4-39.5-40.9V142.3c0-22.6 17.7-40.9 39.5-40.9h167.1c21.8 0 39.5 18.4 39.5 40.9v211.6c0 22.6-17.7 40.9-39.4 40.9zM164.5 103.9c-20.4 0-37 17.2-37 38.4v211.6c0 21.2 16.6 38.4 37 38.4h167.1c20.4 0 37-17.2 37-38.4V142.3c0-21.2-16.6-38.4-37-38.4H164.5z"/><path d="M325.1 385.5h-154c-20.1 0-36.5-17-36.5-37.8V148.5c0-20.9 16.4-37.8 36.5-37.8h154c20.1 0 36.5 17 36.5 37.8v199.2c0 20.9-16.3 37.8-36.5 37.8zm-154-272.3c-18.8 0-34 15.8-34 35.3v199.2c0 19.5 15.3 35.3 34 35.3h154c18.8 0 34-15.8 34-35.3V148.5c0-19.5-15.3-35.3-34-35.3h-154z"/><path d="M319 375.9H177.2c-18.6 0-33.7-15.6-33.7-34.9V155.2c0-19.2 15.1-34.9 33.7-34.9h141.7c18.6 0 33.7 15.6 33.7 34.9V341c0 19.2-15.1 34.9-33.6 34.9zM177.2 122.8c-17.2 0-31.2 14.5-31.2 32.4V341c0 17.9 14 32.4 31.2 32.4h141.7c17.2 0 31.2-14.5 31.2-32.4V155.2c0-17.9-14-32.4-31.2-32.4H177.2z"/></g><path d="M341.8 340.4c0 13.1-10.2 23.8-22.7 23.8h-142c-12.5 0-22.7-10.6-22.7-23.8V155.8c0-13.1 10.2-23.8 22.7-23.8H319c12.5 0 22.7 10.6 22.7 23.8v184.6h.1z" fill="#58b6ba"/><path d="M312.7 333.5l23.1 22.9c-4.2 4.8-10.1 7.8-16.8 7.8H177.1c-6.9 0-13-3.2-17.2-8.2l23.5-22.5h129.3zm0-170.7l23.1-22.9c-4.2-4.8-10.1-7.8-16.8-7.8H177.1c-6.9 0-13 3.2-17.2 8.2l23.5 22.5h129.3z" fill="#4fa8a8"/><path fill="#92cc71" d="M183.5 162.7h129.3v170.7H183.5z"/><path fill="#65a844" d="M190 168.8h116.3v158.6H190z"/><g fill="#c9e5a1"><path d="M256.2 248.5h44.7v-.8h-44.7c-.2-4.3-3.8-7.7-8.1-7.7s-7.9 3.4-8.1 7.7h-44.7v.8H240c.2 4.3 3.8 7.7 8.1 7.7s7.9-3.4 8.1-7.7zm-8.1-7.7c3.9 0 7 3 7.2 6.8h-6.6c-.1-.2-.4-.3-.6-.3s-.5.1-.6.3h-6.6c.2-3.7 3.3-6.8 7.2-6.8zm-7.2 7.7h6.6c.1.2.4.3.6.3.2 0 .5-.1.6-.3h6.6c-.2 3.8-3.4 6.8-7.2 6.8-3.9.1-7-3-7.2-6.8z"/><circle cx="248.2" cy="318" r=".8"/><circle cx="248.2" cy="178.2" r=".8"/><path d="M240.8 314.5h24.6v12.7h.9v-13.5h-11.2c-1.5-2.3-4.1-3.8-6.9-3.8-2.8 0-5.4 1.5-6.9 3.8h-11.4v13.5h.9v-12.7h10zm7.4-3.8c2.3 0 4.5 1.1 5.9 2.9h-11.7c1.3-1.8 3.4-2.9 5.8-2.9z"/><path d="M255.8 322.8v4.4h.9v-5.3h-17.2v5.3h.9v-4.4zm-.9-140.1h11.4V169h-.9v12.8h-34.6V169h-.9v13.7h11.2c1.5 2.3 4.1 3.8 6.9 3.8 2.8 0 5.4-1.5 6.9-3.8zm-12.7 0h11.7c-1.4 1.9-3.5 2.9-5.9 2.9-2.3 0-4.5-1.1-5.8-2.9z"/><path d="M256.7 174.4V169h-.9v4.6h-15.4V169h-.9v5.4z"/></g><path d="M326.8 144.3H169.3c-.8 0-1.5-.7-1.5-1.5s.7-1.5 1.5-1.5h157.5c.8 0 1.5.7 1.5 1.5s-.6 1.5-1.5 1.5zm-15.5 15H184.8c-.8 0-1.5-.7-1.5-1.5s.7-1.5 1.5-1.5h126.5c.8 0 1.5.7 1.5 1.5s-.6 1.5-1.5 1.5zm6.5-7.4H176.5c-.8 0-1.5-.7-1.5-1.5s.7-1.5 1.5-1.5h141.3c.8 0 1.5.7 1.5 1.5s-.6 1.5-1.5 1.5zm9 203H169.3c-.8 0-1.5-.7-1.5-1.5s.7-1.5 1.5-1.5h157.5c.8 0 1.5.7 1.5 1.5s-.6 1.5-1.5 1.5zm-15.5-15H184.8c-.8 0-1.5-.7-1.5-1.5s.7-1.5 1.5-1.5h126.5c.8 0 1.5.7 1.5 1.5s-.6 1.5-1.5 1.5zm6.5 7.4H176.5c-.8 0-1.5-.7-1.5-1.5s.7-1.5 1.5-1.5h141.3c.8 0 1.5.7 1.5 1.5s-.6 1.5-1.5 1.5zm-154.7 2c-.8 0-1.5-.7-1.5-1.5V149.9c0-.8.7-1.5 1.5-1.5s1.5.7 1.5 1.5v197.9c0 .9-.7 1.5-1.5 1.5zm15-15.4c-.8 0-1.5-.7-1.5-1.5v-167c0-.8.7-1.5 1.5-1.5s1.5.7 1.5 1.5v166.9c0 .9-.7 1.6-1.5 1.6zm-7.5 6.4c-.8 0-1.5-.7-1.5-1.5V157.1c0-.8.7-1.5 1.5-1.5s1.5.7 1.5 1.5v181.8c0 .8-.7 1.4-1.5 1.4zm162.5 9c-.8 0-1.5-.7-1.5-1.5V149.9c0-.8.7-1.5 1.5-1.5s1.5.7 1.5 1.5v197.9c0 .9-.7 1.5-1.5 1.5zm-15-15.4c-.8 0-1.5-.7-1.5-1.5v-167c0-.8.7-1.5 1.5-1.5s1.5.7 1.5 1.5v166.9c0 .9-.7 1.6-1.5 1.6zm7.5 6.4c-.8 0-1.5-.7-1.5-1.5V157.1c0-.8.7-1.5 1.5-1.5s1.5.7 1.5 1.5v181.8c0 .8-.7 1.4-1.5 1.4z" fill="#479694"/></svg>