<svg xmlns="http://www.w3.org/2000/svg" viewBox="0 0 504 504"><circle cx="252" cy="252" r="252" fill="#ffd05b"/><path d="M144.1 327.5H63c0-1.8-1.5-3.3-3.3-3.3V179.8c1.8 0 3.3-1.5 3.3-3.3h81.1c0 1.8 1.5 3.3 3.3 3.3v144.5c-1.8-.1-3.3 1.4-3.3 3.2z" fill="#324a5e"/><path d="M441 327.5H150.6c0-1.8-1.5-3.3-3.3-3.3V179.8c1.8 0 3.3-1.5 3.3-3.3H441c0 1.8 1.5 3.3 3.3 3.3v144.5c-1.9-.1-3.3 1.4-3.3 3.2z" fill="#e6e9ee"/><path d="M188.7 246.2h214.1v1.4H188.7zm0 18.5h214.1v1.4H188.7zm0 18.5h214.1v1.4H188.7zm0 18.6h214.1v1.4H188.7z" fill="#acb3ba"/><path d="M212.9 203.2h9.1v26.1h7.3v-26.1h9.1v-6.3h-25.5zm30.8-6.3h7.2v32.3h-7.2zm30.5 6.2c3.4 0 6.2 1.4 8.5 4.3l4.5-5.1c-3.6-4-8-6.1-13.3-6.1-4.8 0-8.8 1.6-12.1 4.8-3.3 3.2-4.9 7.2-4.9 12s1.6 8.8 4.8 11.9c3.2 3.1 7.3 4.7 12.3 4.7s9.3-2.1 13-6.2l-4.6-4.8c-2.3 2.8-5.2 4.2-8.7 4.2-2.6 0-4.8-.9-6.6-2.7-1.8-1.8-2.7-4.2-2.7-7.2s1-5.4 2.9-7.2c1.9-1.7 4.2-2.6 6.9-2.6zm38-6.2L300 210.2v-13.3h-7.2v32.3h7.2V220l3.2-3.6 9.5 12.8h8.4c-1.5-2.1-3.7-5.2-6.7-9.4s-5-7.1-6.2-8.6l12.9-14.3h-8.9zm20.6 19.3h14.5V210h-14.5v-6.7h16.1v-6.4h-23.3v32.4h23.8v-6.4h-16.6zm20.4-19.3v6.3h9.1v26.1h7.2v-26.1h9.2v-6.3z" fill="#ff7058"/></svg>