<svg xmlns="http://www.w3.org/2000/svg" viewBox="0 0 509.287 509.287"><circle cx="254.644" cy="254.644" r="254.644" fill="#4b5aa7"/><path d="M509.287 254.644c0-85.446-42.045-160.721-106.469-206.834-1.695 2.713-3.391 5.425-4.408 8.477-6.781 19.666-78.665-1.017-71.883 143.767 0 0-2.374 12.546-11.528 18.649-9.155 6.103-33.568 44.079-19.666 90.193l-4.069 14.919s-13.563-14.241-63.407-24.752c-50.183-10.511-79.004-114.607-79.004-114.607l-34.246 88.498s61.711 123.762 162.416 185.134c0 0 28.821 30.177 42.723 32.551 13.902 2.374 62.389-44.079 81.038-85.785 0 0 69.51-71.883 69.51-139.02 0 0 26.787 37.637 22.718 78.665 10.511-28.144 16.275-58.322 16.275-89.855z" fill="#f7cfa2"/><circle cx="165.807" cy="192.254" r="111.216" fill="#bdbdbe"/><circle cx="165.807" cy="192.254" r="80.699" fill="#646b79"/><circle cx="165.807" cy="192.254" r="18.649" fill="#dededf"/></svg>