<?xml version="1.0" encoding="iso-8859-1"?>
<!-- Generator: Adobe Illustrator 19.0.0, SVG Export Plug-In . SVG Version: 6.00 Build 0)  -->
<svg version="1.1" id="Layer_1" xmlns="http://www.w3.org/2000/svg" xmlns:xlink="http://www.w3.org/1999/xlink" x="0px" y="0px"
	 viewBox="0 0 512 512" style="enable-background:new 0 0 512 512;" xml:space="preserve">
<path style="fill:#E9495B;" d="M256,512L256,512C115.2,512,0,396.8,0,256l0,0C0,115.2,115.2,0,256,0l0,0c140.8,0,256,115.2,256,256
	l0,0C512,396.8,396.8,512,256,512z"/>
<path style="fill:#AB2D3D;" d="M372.26,135.8l-12.132-10.02l-9.168-6.476l-5.116,17.652l-96.28,50.436l-81.18,8.572
	c0,0-47.604,9.988-51.652,43.372c-5.624,46.4,29.664,42.868,29.664,42.868l2.044,13.112l96.772,216.332
	c4.016,0.208,8.064,0.292,12.124,0.316C397.524,511.236,512,396.352,512,256l0,0c0-17.1-1.732-33.812-4.968-50L372.26,135.8z"/>
<g>
	<polygon style="fill:#EC6646;" points="142.392,211.1 135.86,208.652 124.844,215.588 114.232,238.036 116.272,260.072 
		124.432,274.36 133.82,282.112 144.024,282.928 	"/>
</g>
<g>
	<g>
		<polygon style="fill:#DFDEDE;" points="171.368,297.212 192.588,355.572 204.016,383.324 212.992,393.12 224.012,395.976 
			232.584,390.672 235.44,378.836 228.092,358.84 204.424,298.844 		"/>
	</g>
	<g>
		<polygon style="fill:#DFDEDE;" points="244.012,189.472 337.64,140.496 338.896,357.204 244.012,302.724 		"/>
	</g>
</g>
<g>
	<g>
		<polygon style="fill:#AEABAA;" points="244.012,189.472 244.012,302.724 144.228,292.928 143.004,197.428 		"/>
	</g>
	<g>
		<polygon style="fill:#AEABAA;" points="339.508,128.252 337.672,150.904 337.672,361.492 344.404,371.896 355.424,371.896 
			364.608,363.328 363.384,131.316 358.488,120.908 346.244,120.296 		"/>
	</g>
</g>
<g>
	<g>
		<g>
			<path style="fill:#474341;" d="M318.112,345.272c-0.54,0-1.088-0.128-1.608-0.4l-74.22-38.908l-97.76-8.876
				c-1.764-0.164-3.124-1.624-3.156-3.396l-1.428-84.164c-0.028-1.92,1.496-3.5,3.416-3.532c2.004,0.088,3.496,1.496,3.532,3.412
				l1.372,81.048l93.872,8.524c0.776-0.176,1.564-0.116,2.272,0.256l75.328,39.488c1.696,0.892,2.352,2.988,1.464,4.688
				C320.572,344.596,319.364,345.272,318.112,345.272"/>
			<path style="fill:#474341;" d="M162.112,199.94c-1.776,0-3.284-1.352-3.452-3.156c-0.172-1.912,1.236-3.596,3.144-3.768
				l80.484-7.308l93.34-48.928c1.072-0.564,2.356-0.528,3.412,0.104c1.036,0.628,1.672,1.756,1.672,2.968v32.476
				c0,1.916-1.556,3.468-3.472,3.468c-1.92,0-3.472-1.552-3.472-3.468v-26.74L244.4,192.432c-0.784,0.412-1.676,0.504-2.512,0.28
				l-79.456,7.212C162.32,199.936,162.216,199.94,162.112,199.94"/>
			<path style="fill:#474341;" d="M337.232,333.74c-1.92,0-3.472-1.552-3.472-3.468V209.368c0-1.92,1.552-3.468,3.472-3.468
				s3.472,1.552,3.472,3.468v120.9C340.704,332.188,339.152,333.74,337.232,333.74"/>
			<path style="fill:#474341;" d="M350.936,376.764c-9,0-16.328-7.324-16.328-16.324c0-1.92,1.556-3.472,3.472-3.472
				s3.472,1.552,3.472,3.472c0,5.172,4.208,9.384,9.384,9.384s9.384-4.212,9.384-9.384V132.712c0-5.176-4.208-9.384-9.384-9.384
				s-9.384,4.212-9.384,9.384c0,1.92-1.556,3.468-3.472,3.468c-1.92,0-3.472-1.552-3.472-3.468c0-9.004,7.328-16.324,16.328-16.324
				s16.328,7.324,16.328,16.324V360.44C367.264,369.444,359.936,376.764,350.936,376.764"/>
			<path style="fill:#474341;" d="M244.624,287.724c-1.344,0-2.428-1.088-2.428-2.428v-17.048c0-1.34,1.084-2.428,2.428-2.428
				s2.428,1.088,2.428,2.428v17.048C247.056,286.636,245.968,287.724,244.624,287.724"/>
			<path style="fill:#474341;" d="M244.624,263.152c-1.344,0-2.428-1.088-2.428-2.428v-54.348c0-1.344,1.084-2.428,2.428-2.428
				s2.428,1.088,2.428,2.428v54.344C247.056,262.064,245.968,263.152,244.624,263.152"/>
			<path style="fill:#474341;" d="M140.348,286.356c-16.148,0-29.284-18.18-29.284-40.524s13.136-40.52,29.284-40.52
				c1.92,0,3.472,1.552,3.472,3.468s-1.552,3.468-3.472,3.468c-12.32,0-22.34,15.064-22.34,33.584s10.02,33.584,22.34,33.584
				c1.92,0,3.472,1.552,3.472,3.468C143.82,284.804,142.268,286.356,140.348,286.356"/>
			<path style="fill:#474341;" d="M221.268,399.432c-7.992,0-16.1-5.888-19.74-15.132l-20.944-53.236
				c-0.7-1.784,0.172-3.8,1.956-4.5c1.784-0.688,3.804,0.168,4.504,1.96l20.944,53.232c3.076,7.796,10.604,12.468,16.484,10.136
				c5.868-2.308,8.232-10.852,5.168-18.652l-27.892-69.444c-0.72-1.78,0.148-3.8,1.928-4.516c1.764-0.716,3.8,0.148,4.508,1.928
				l27.9,69.468c4.536,11.52,0.46,23.924-9.068,27.676C225.148,399.084,223.212,399.432,221.268,399.432"/>
			<path style="fill:#474341;" d="M211.56,322.264c11.464-0.016,20.532-9.26,20.08-20.772c-0.172-4.452-7.116-4.476-6.94,0
				c0.304,7.744-5.332,13.816-13.14,13.832C207.092,315.332,207.088,322.272,211.56,322.264"/>
			<path style="fill:#474341;" d="M189.092,221.608c-1.264,0-2.328-0.98-2.42-2.26c-0.092-1.34,0.916-2.5,2.256-2.596l29.064-2.028
				c1.336-0.148,2.496,0.912,2.592,2.252c0.092,1.34-0.92,2.496-2.256,2.592l-29.06,2.032
				C189.208,221.604,189.152,221.608,189.092,221.608"/>
			<path style="fill:#474341;" d="M165.104,223.284c-1.264,0-2.328-0.98-2.42-2.26c-0.088-1.34,0.92-2.5,2.256-2.596l17.388-1.212
				c1.312-0.108,2.496,0.912,2.592,2.252c0.092,1.336-0.916,2.496-2.256,2.592l-17.38,1.216
				C165.22,223.28,165.16,223.284,165.104,223.284"/>
			<path style="fill:#474341;" d="M217.756,246.996h-0.032l-19.376-0.276c-1.344-0.02-2.416-1.124-2.396-2.468
				c0.02-1.328,1.104-2.392,2.428-2.392h0.032l19.376,0.276c1.344,0.02,2.416,1.124,2.396,2.464
				C220.164,245.928,219.08,246.996,217.756,246.996"/>
			<path style="fill:#474341;" d="M189.936,246.6h-0.032l-24.42-0.348c-1.344-0.02-2.416-1.124-2.396-2.464
				c0.02-1.34,0.984-2.352,2.464-2.396l24.42,0.348c1.344,0.02,2.416,1.124,2.396,2.464C192.344,245.536,191.26,246.6,189.936,246.6
				"/>
			<path style="fill:#474341;" d="M218.984,275.896c-0.068,0-0.132-0.004-0.2-0.008l-29.852-2.428
				c-1.336-0.108-2.332-1.284-2.224-2.62c0.104-1.336,1.3-2.316,2.616-2.224l29.852,2.424c1.34,0.112,2.336,1.284,2.224,2.62
				C221.3,274.932,220.232,275.896,218.984,275.896"/>
			<path style="fill:#474341;" d="M179.476,272.684c-0.068,0-0.132-0.004-0.2-0.008l-15.18-1.236
				c-1.336-0.108-2.332-1.28-2.224-2.62c0.104-1.34,1.288-2.316,2.616-2.224l15.18,1.232c1.34,0.112,2.336,1.284,2.224,2.62
				C181.792,271.724,180.724,272.684,179.476,272.684"/>
		</g>
		<path style="fill:#EC6646;" d="M365.832,199.732c7.776,0,14.08,21.896,14.08,48.908s-6.304,48.908-14.08,48.908"/>
		<g>
			<path style="fill:#474341;" d="M365.832,299.98c-1.344,0-2.428-1.088-2.428-2.428s1.084-2.428,2.428-2.428
				c4.748,0,11.652-18.108,11.652-46.48s-6.9-46.48-11.652-46.48c-1.344,0-2.428-1.088-2.428-2.428s1.084-2.428,2.428-2.428
				c10.836,0,16.508,25.828,16.508,51.34S376.672,299.98,365.832,299.98"/>
			<path style="fill:#474341;" d="M334.204,185.796v4.08c0,3.152,4.896,3.156,4.896,0v-4.08
				C339.1,182.648,334.204,182.644,334.204,185.796"/>
			<path style="fill:#474341;" d="M177.424,309.204c-1.304-3.828-2.604-7.656-3.904-11.488c-1.008-2.968-5.74-1.692-4.724,1.304
				c1.304,3.828,2.604,7.656,3.908,11.488C173.712,313.476,178.444,312.2,177.424,309.204"/>
		</g>
	</g>
</g>
<g>
</g>
<g>
</g>
<g>
</g>
<g>
</g>
<g>
</g>
<g>
</g>
<g>
</g>
<g>
</g>
<g>
</g>
<g>
</g>
<g>
</g>
<g>
</g>
<g>
</g>
<g>
</g>
<g>
</g>
</svg>
