<?xml version="1.0" encoding="iso-8859-1"?>
<!-- Generator: Adobe Illustrator 19.0.0, SVG Export Plug-In . SVG Version: 6.00 Build 0)  -->
<svg version="1.1" id="Layer_1" xmlns="http://www.w3.org/2000/svg" xmlns:xlink="http://www.w3.org/1999/xlink" x="0px" y="0px"
	 viewBox="0 0 509.287 509.287" style="enable-background:new 0 0 509.287 509.287;" xml:space="preserve">
<circle style="fill:#4B5AA7;" cx="254.644" cy="254.644" r="254.644"/>
<path style="fill:#F7CFA2;" d="M509.287,254.644c0-85.446-42.045-160.721-106.469-206.834c-1.695,2.713-3.391,5.425-4.408,8.477
	c-6.781,19.666-78.665-1.017-71.883,143.767c0,0-2.374,12.546-11.528,18.649c-9.155,6.103-33.568,44.079-19.666,90.193
	l-4.069,14.919c0,0-13.563-14.241-63.407-24.752c-50.183-10.511-79.004-114.607-79.004-114.607l-34.246,88.498
	c0,0,61.711,123.762,162.416,185.134c0,0,28.821,30.177,42.723,32.551c13.902,2.374,62.389-44.079,81.038-85.785
	c0,0,69.51-71.883,69.51-139.02c0,0,26.787,37.637,22.718,78.665C503.523,316.355,509.287,286.177,509.287,254.644z"/>
<circle style="fill:#BDBDBE;" cx="165.807" cy="192.254" r="111.216"/>
<circle style="fill:#646B79;" cx="165.807" cy="192.254" r="80.699"/>
<circle style="fill:#DEDEDF;" cx="165.807" cy="192.254" r="18.649"/>
<g>
</g>
<g>
</g>
<g>
</g>
<g>
</g>
<g>
</g>
<g>
</g>
<g>
</g>
<g>
</g>
<g>
</g>
<g>
</g>
<g>
</g>
<g>
</g>
<g>
</g>
<g>
</g>
<g>
</g>
</svg>
